<svg xmlns="http://www.w3.org/2000/svg" viewBox="0 0 161.49 44.14"><defs><style>.cls-1,.cls-2,.cls-3{isolation:isolate;}.cls-1{opacity:0.8;}.cls-2{opacity:0.6;}.cls-3{opacity:0.4;}</style></defs><g id="Layer_2" data-name="Layer 2"><g id="Layer_1-2" data-name="Layer 1"><g id="Layer_2-2" data-name="Layer 2"><g id="Layer_1-2-2" data-name="Layer 1-2"><path d="M0,36.53V9.46H5.72V31.81H17.33v4.72Z"/><path d="M28.64,36.93a10.77,10.77,0,0,1-5.39-1.28A8.62,8.62,0,0,1,19.78,32a11.91,11.91,0,0,1-1.22-5.56A11.84,11.84,0,0,1,19.78,21a8.91,8.91,0,0,1,3.43-3.69A10,10,0,0,1,28.41,16a10.65,10.65,0,0,1,3.75.65,8.36,8.36,0,0,1,3,1.92,8.64,8.64,0,0,1,2,3.22A12.73,12.73,0,0,1,38,26.27v1.54H20.81V24.33H32.65a4.29,4.29,0,0,0-.52-2.16,3.91,3.91,0,0,0-1.47-1.47,4.28,4.28,0,0,0-2.16-.54,4.36,4.36,0,0,0-2.26.59,4.14,4.14,0,0,0-1.54,1.57,4.46,4.46,0,0,0-.57,2.2v3.31a5.58,5.58,0,0,0,.56,2.61,4,4,0,0,0,1.59,1.69,4.81,4.81,0,0,0,2.45.6,5.51,5.51,0,0,0,1.71-.27,3.48,3.48,0,0,0,2.19-2.09l5.21.34A7.06,7.06,0,0,1,36.22,34a8,8,0,0,1-3.15,2.17A11.71,11.71,0,0,1,28.64,36.93Z"/><path d="M40,44.14V16.22h5.55v3.41h.26A7.53,7.53,0,0,1,46.87,18a5.75,5.75,0,0,1,1.85-1.43A6.4,6.4,0,0,1,51.57,16a7.7,7.7,0,0,1,4.1,1.15,8.19,8.19,0,0,1,3,3.48,13.29,13.29,0,0,1,1.12,5.81,13.4,13.4,0,0,1-1.09,5.73,8.18,8.18,0,0,1-3,3.54,7.61,7.61,0,0,1-4.18,1.19,6.47,6.47,0,0,1-2.78-.54A5.72,5.72,0,0,1,46.91,35a6.71,6.71,0,0,1-1.11-1.68h-.18V44.14Zm5.52-17.76a9,9,0,0,0,.5,3.16,4.55,4.55,0,0,0,1.45,2.1,3.92,3.92,0,0,0,4.64,0,4.61,4.61,0,0,0,1.45-2.11,9,9,0,0,0,.5-3.13,9,9,0,0,0-.49-3.09,4.66,4.66,0,0,0-1.44-2.09,4,4,0,0,0-4.66,0A4.55,4.55,0,0,0,46,23.24,8.73,8.73,0,0,0,45.51,26.38Z"/><path d="M61.9,36.53V16.22h5.46v3.55h.21a5.27,5.27,0,0,1,1.87-2.87,4.94,4.94,0,0,1,3-1c.3,0,.61,0,.91.05a6.19,6.19,0,0,1,.86.15v5a6.77,6.77,0,0,0-1.09-.21,9.32,9.32,0,0,0-1.29-.09,4.48,4.48,0,0,0-2.21.53,3.91,3.91,0,0,0-1.53,1.49A4.22,4.22,0,0,0,67.53,25v11.5Z"/><path d="M78.32,13.61a3.06,3.06,0,0,1-2.15-.84A2.69,2.69,0,0,1,76,9a1,1,0,0,1,.21-.21,3.17,3.17,0,0,1,4.3,0,2.72,2.72,0,0,1,.19,3.83l-.19.19A3.06,3.06,0,0,1,78.32,13.61ZM75.48,36.53V16.22h5.63V36.53Z"/><path d="M93.14,36.93a10.39,10.39,0,0,1-5.36-1.33,8.9,8.9,0,0,1-3.44-3.7,11.84,11.84,0,0,1-1.19-5.44A11.8,11.8,0,0,1,84.36,21a8.87,8.87,0,0,1,3.44-3.69A10.17,10.17,0,0,1,93.12,16a10.47,10.47,0,0,1,4.65,1,7.75,7.75,0,0,1,3.16,2.71,8,8,0,0,1,1.28,4.09H96.9a4.16,4.16,0,0,0-1.19-2.45,3.44,3.44,0,0,0-2.5-.93,3.72,3.72,0,0,0-2.28.71,4.52,4.52,0,0,0-1.52,2.05,8.81,8.81,0,0,0-.54,3.27,8.91,8.91,0,0,0,.54,3.3,4.44,4.44,0,0,0,1.51,2.07,4,4,0,0,0,4,.32,3.4,3.4,0,0,0,1.28-1.16,4.55,4.55,0,0,0,.67-1.82h5.31A8.39,8.39,0,0,1,101,33.18a7.68,7.68,0,0,1-3.11,2.76A10.44,10.44,0,0,1,93.14,36.93Z"/><path d="M113.37,36.93a10.32,10.32,0,0,1-5.32-1.32,8.85,8.85,0,0,1-3.45-3.67,11.71,11.71,0,0,1-1.22-5.48A11.75,11.75,0,0,1,104.6,21a8.93,8.93,0,0,1,3.45-3.68,11.46,11.46,0,0,1,10.64,0A8.93,8.93,0,0,1,122.14,21a11.87,11.87,0,0,1,1.22,5.51,11.83,11.83,0,0,1-1.22,5.48,8.85,8.85,0,0,1-3.45,3.67A10.32,10.32,0,0,1,113.37,36.93Zm0-4.37a3.46,3.46,0,0,0,2.34-.8,4.83,4.83,0,0,0,1.42-2.19,10.43,10.43,0,0,0,0-6.32,4.91,4.91,0,0,0-1.42-2.19,3.43,3.43,0,0,0-2.34-.81,3.55,3.55,0,0,0-2.37.81,4.78,4.78,0,0,0-1.44,2.19,9.41,9.41,0,0,0-.49,3.16,9.45,9.45,0,0,0,.49,3.16A4.78,4.78,0,0,0,111,31.76a3.46,3.46,0,0,0,2.37.8Z"/><path d="M131,24.79V36.53H125.4V16.22h5.37v3.59H131A5.64,5.64,0,0,1,133.27,17a6.82,6.82,0,0,1,3.85-1,7.22,7.22,0,0,1,3.69.92,6.34,6.34,0,0,1,2.44,2.64,8.9,8.9,0,0,1,.87,4.08V36.53h-5.63V24.61a4.11,4.11,0,0,0-1-2.92,3.43,3.43,0,0,0-2.66-1.05,3.88,3.88,0,0,0-2,.49,3.36,3.36,0,0,0-1.35,1.42A5,5,0,0,0,131,24.79Z"/><path class="cls-1" d="M153.6,7l-2.88,2.88L147.84,7a4.07,4.07,0,1,1,5.76,0Z"/><path d="M154.53,7.88l-2.88,2.88,2.88,2.88a4.08,4.08,0,1,0,0-5.77Z"/><path class="cls-2" d="M146.91,13.64l2.88-2.88-2.88-2.88a4.07,4.07,0,1,0,0,5.76Z"/><path class="cls-3" d="M147.84,14.57l2.88-2.88,2.88,2.88a4.07,4.07,0,1,1-5.76,0Z"/></g></g></g></g></svg>